# xmcd CD database file
#
# Track frame offsets:
#	150
#	28910
#	42888
#	72011
#	86048
#	109571
#	133996
#	156203
#	177371
#	205087
#	216029
#	250112
#	265264
#	279211
#
# Disc length: 4216 seconds
#
# Revision: 0
# Processed by: cddbd v1.5.2PL0 Copyright (c) Steve Scherf et al.
# Submitted via: CDex 1.51
#
DISCID=c510760e
DTITLE=Bob Dylan - Tell Tale Signs (2|2)
DYEAR=2008
DGENRE=Blues
TTITLE0=Bob Dylan - Mississippi [Version #2]
TTITLE1=Bob Dylan - 32-20 Blues
TTITLE2=Bob Dylan - Series of Dreams
TTITLE3=Bob Dylan - God Knows
TTITLE4=Bob Dylan - Can't Escape from You
TTITLE5=Bob Dylan - Dignity
TTITLE6=Bob Dylan - Ring Them Bells [Live]
TTITLE7=Bob Dylan - Cocaine Blues [Live]
TTITLE8=Bob Dylan - Ain't Talkin' [Alternate Versi
TTITLE9=Bob Dylan - Girl on the Greenbriar Shore [
TTITLE10=Bob Dylan - Lonesome Day Blues [Live]
TTITLE11=Bob Dylan - Miss the Mississippi
TTITLE12=Bob Dylan - Lonesome River
TTITLE13=Bob Dylan - Cross the Green Mountain
EXTD=YEAR: 2008
EXTT0=
EXTT1=
EXTT2=
EXTT3=
EXTT4=
EXTT5=
EXTT6=
EXTT7=
EXTT8=
EXTT9=
EXTT10=
EXTT11=
EXTT12=
EXTT13=
PLAYORDER=
